<?xml version="1.0" standalone="no"?>
<!DOCTYPE svg PUBLIC "-//W3C//DTD SVG 20010904//EN"
 "http://www.w3.org/TR/2001/REC-SVG-20010904/DTD/svg10.dtd">
<svg version="1.0" xmlns="http://www.w3.org/2000/svg"
 width="816.000000pt" height="694.000000pt" viewBox="0 0 816.000000 694.000000"
 preserveAspectRatio="xMidYMid meet" color="currentColor">

<g transform="translate(0.000000,694.000000) scale(0.100000,-0.100000)"
fill="#000000" stroke="none">
<path d="M110 6840 c0 -3 4 -10 9 -15 5 -6 99 -158 208 -340 110 -181 350
-577 533 -880 420 -694 382 -632 653 -1080 312 -515 876 -1450 1005 -1665 57
-96 106 -176 107 -178 3 -4 261 410 298 478 16 30 34 60 38 66 21 26 30 119
18 183 -10 56 -35 102 -187 355 -413 686 -1426 2370 -1622 2696 -117 195 -218
360 -224 366 -12 13 -836 26 -836 14z" color="currentColor"/>
<path d="M1790 6827 c0 -13 30 -67 90 -162 199 -315 856 -1348 1703 -2680 539
-847 995 -1565 1014 -1595 18 -31 33 -69 33 -86 0 -29 -89 -210 -288 -584 -33
-63 -83 -157 -111 -209 l-49 -95 -27 45 c-14 24 -150 255 -301 512 -448 764
-406 707 -521 707 -68 0 -105 -14 -139 -52 -21 -23 -274 -423 -274 -433 0 -3
46 -83 101 -178 56 -94 213 -365 349 -602 136 -236 332 -576 435 -755 103
-179 218 -379 256 -445 68 -119 122 -195 132 -185 6 7 249 433 429 755 80 143
298 530 483 860 186 330 342 615 347 632 12 42 -5 81 -102 233 -40 63 -240
383 -445 710 -205 327 -460 735 -567 905 -107 171 -291 463 -408 650 -455 726
-637 1016 -728 1160 -98 156 -136 224 -129 231 2 2 541 3 1197 2 l1193 -3
-167 -328 c-121 -238 -166 -337 -166 -363 0 -27 18 -62 82 -157 109 -163 258
-377 263 -377 3 0 205 323 957 1530 l215 345 -691 7 c-1080 10 -4166 14 -4166
5z" color="currentColor"/>
<path d="M7379 6823 c-38 -3 -62 -10 -71 -21 -8 -9 -58 -89 -110 -177 -52 -88
-194 -326 -315 -530 -121 -203 -319 -536 -440 -740 -121 -203 -287 -482 -368
-620 -81 -137 -254 -425 -383 -640 -294 -486 -315 -526 -314 -598 0 -66 14
-93 101 -212 36 -50 116 -170 176 -268 61 -97 112 -177 115 -177 3 0 10 8 16
18 11 16 896 1544 1114 1922 59 102 346 598 639 1103 293 506 535 925 538 933
4 12 -45 14 -318 12 -178 -1 -349 -3 -380 -5z" color="currentColor"/>
</g>
</svg>
